<svg width="47" height="47" viewBox="0 0 47 47" fill="none" xmlns="http://www.w3.org/2000/svg">
<g clip-path="url(#clip0_1316_419)">
<mask id="mask0_1316_419" style="mask-type:luminance" maskUnits="userSpaceOnUse" x="0" y="0" width="47" height="47">
<path d="M0 0H46.0733V46.0733H0V0Z" fill="white"/>
</mask>
<g mask="url(#mask0_1316_419)">
<path d="M14.9395 4.04922L15.7302 3.25851C16.9524 2.0363 18.6102 1.34961 20.3387 1.34961C21.5094 1.34961 22.5329 1.71298 23.3662 2.17371C25.7323 3.48212 28.4332 4.04922 31.1371 4.04922L25.7379 12.328H20.3387L14.9395 4.04922Z" stroke="white" stroke-width="2.70157" stroke-miterlimit="10"/>
<path d="M20.3379 12.3281L13.9561 18.7099C9.39961 23.2664 6.83984 29.4462 6.83984 35.8901V39.3242C6.83984 42.3061 9.25716 44.7234 12.2391 44.7234H33.8359C36.8178 44.7234 39.2352 42.3061 39.2352 39.3242V35.8901C39.2352 29.4462 36.6754 23.2664 32.1189 18.7099L25.7371 12.3281" stroke="white" stroke-width="2.70157" stroke-miterlimit="10"/>
<path d="M25.7371 28.5258C25.7371 27.0348 24.5284 25.8262 23.0375 25.8262C21.5466 25.8262 20.3379 27.0348 20.3379 28.5258C20.3379 30.0167 21.5466 31.2253 23.0375 31.2253C24.5284 31.2253 25.7371 32.4339 25.7371 33.9249C25.7371 35.4159 24.5284 36.6246 23.0375 36.6246C21.5466 36.6246 20.3379 35.4159 20.3379 33.9249" stroke="white" stroke-width="2.70157" stroke-miterlimit="10"/>
<path d="M23.0371 21.7764V25.8258" stroke="white" stroke-width="2.70157" stroke-miterlimit="10"/>
<path d="M23.0371 36.624V40.6734" stroke="white" stroke-width="2.70157" stroke-miterlimit="10"/>
<path d="M12.2383 8.27832V9.62812C12.2383 11.1191 13.447 12.3277 14.9379 12.3277H23.0367" stroke="white" stroke-width="2.70157" stroke-miterlimit="10"/>
</g>
</g>
<defs>
<clipPath id="clip0_1316_419">
<rect width="46.0733" height="46.0733" fill="white"/>
</clipPath>
</defs>
</svg>
