<svg width="26" height="26" viewBox="0 0 26 26" fill="none" xmlns="http://www.w3.org/2000/svg">
<path d="M20.5744 11.6267C19.3945 11.6267 18.3458 11.1678 17.4281 10.2502C16.5104 9.33248 16.0516 8.28372 16.0516 7.10385V6.14521H14.1343V7.10385C14.1343 7.95597 14.3064 8.77123 14.6505 9.54961C14.9946 10.328 15.4617 11.0203 16.0516 11.6267H4.10547V13.5439H16.0516C15.4617 14.1503 14.9946 14.8426 14.6505 15.621C14.3064 16.3994 14.1343 17.2146 14.1343 18.0668V19.0254H16.0516V18.0668C16.0516 16.8869 16.5104 15.8381 17.4281 14.9204C18.3458 14.0028 19.3945 13.5439 20.5744 13.5439H21.533V11.6267H20.5744Z" fill="#F7F7F7"/>
</svg>
