<svg width="26" height="26" viewBox="0 0 26 26" fill="none" xmlns="http://www.w3.org/2000/svg">
<path d="M4.59603 13.5438C5.77589 13.5438 6.82466 14.0026 7.74233 14.9203C8.66 15.8379 9.11884 16.8867 9.11884 18.0666V19.0252H11.0361V18.0666C11.0361 17.2145 10.8641 16.3992 10.5199 15.6208C10.1758 14.8424 9.70877 14.1501 9.11884 13.5438L21.065 13.5438V11.6265L9.11884 11.6265C9.70877 11.0202 10.1758 10.3278 10.5199 9.54943C10.8641 8.77105 11.0361 7.9558 11.0361 7.10367V6.14503L9.11884 6.14503V7.10367C9.11884 8.28354 8.66 9.33231 7.74233 10.25C6.82466 11.1676 5.77589 11.6265 4.59603 11.6265H3.63739V13.5438H4.59603Z" fill="#003459"/>
</svg>
