<svg width="47" height="47" viewBox="0 0 47 47" fill="none" xmlns="http://www.w3.org/2000/svg">
<g clip-path="url(#clip0_1316_354)">
<path d="M14.8484 24.4759C14.8484 22.985 13.6398 21.7764 12.1489 21.7764C10.6579 21.7764 9.44922 22.985 9.44922 24.4759C9.44922 25.9668 10.6579 27.1755 12.1489 27.1755C13.6398 27.1755 14.8484 28.3842 14.8484 29.8751C14.8484 31.3661 13.6398 32.5748 12.1489 32.5748C10.6579 32.5748 9.44922 31.3661 9.44922 29.8751" stroke="white" stroke-width="2.6996" stroke-miterlimit="10"/>
<path d="M12.1484 19.0771V21.7767" stroke="white" stroke-width="2.6996" stroke-miterlimit="10"/>
<path d="M12.1484 32.5752V35.2748" stroke="white" stroke-width="2.6996" stroke-miterlimit="10"/>
<path d="M20.2468 6.92879C9.81027 6.92879 1.34961 15.3892 1.34961 25.8261C1.34961 36.2626 9.81027 44.7232 20.2468 44.7232C30.6835 44.7232 39.1441 36.2626 39.1441 25.8261H44.7233C44.7233 12.4074 33.6655 1.34961 20.2468 1.34961V25.8261L30.2637 41.853" stroke="white" stroke-width="2.6996" stroke-miterlimit="10"/>
<path d="M20.2471 25.8262H39.1444" stroke="white" stroke-width="2.6996" stroke-miterlimit="10"/>
</g>
<defs>
<clipPath id="clip0_1316_354">
<rect width="46.0733" height="46.0733" fill="white"/>
</clipPath>
</defs>
</svg>
